<?xml version="1.0" encoding="UTF-8" standalone="no"?>
<!-- Created with Inkscape (http://www.inkscape.org/) -->

<svg
   xmlns:osb="http://www.openswatchbook.org/uri/2009/osb"
   xmlns:dc="http://purl.org/dc/elements/1.1/"
   xmlns:cc="http://creativecommons.org/ns#"
   xmlns:rdf="http://www.w3.org/1999/02/22-rdf-syntax-ns#"
   xmlns:svg="http://www.w3.org/2000/svg"
   xmlns="http://www.w3.org/2000/svg"
   xmlns:xlink="http://www.w3.org/1999/xlink"
   xmlns:sodipodi="http://sodipodi.sourceforge.net/DTD/sodipodi-0.dtd"
   xmlns:inkscape="http://www.inkscape.org/namespaces/inkscape"
   width="100"
   height="100"
   id="svg2"
   version="1.1"
   inkscape:version="0.48.4 r9939"
   sodipodi:docname="marca.svg">
  <defs
     id="defs4">
    <linearGradient
       inkscape:collect="always"
       id="linearGradient3927">
      <stop
         style="stop-color:#000000;stop-opacity:1;"
         offset="0"
         id="stop3929" />
      <stop
         style="stop-color:#000000;stop-opacity:0;"
         offset="1"
         id="stop3931" />
    </linearGradient>
    <linearGradient
       id="linearGradient3913"
       osb:paint="solid">
      <stop
         style="stop-color:#ff1e00;stop-opacity:1;"
         offset="0"
         id="stop3915" />
    </linearGradient>
    <radialGradient
       inkscape:collect="always"
       xlink:href="#linearGradient3927"
       id="radialGradient3937"
       cx="-49.572697"
       cy="961.2851"
       fx="-49.572697"
       fy="961.2851"
       r="78.31955"
       gradientTransform="matrix(0.57126044,0,0,0.50235239,74.184342,519.32016)"
       gradientUnits="userSpaceOnUse" />
  </defs>
  <sodipodi:namedview
     id="base"
     pagecolor="#ffffff"
     bordercolor="#666666"
     borderopacity="1.0"
     inkscape:pageopacity="0.0"
     inkscape:pageshadow="2"
     inkscape:zoom="3.81"
     inkscape:cx="62.980767"
     inkscape:cy="57.045726"
     inkscape:document-units="px"
     inkscape:current-layer="layer4"
     showgrid="false"
     inkscape:window-width="1024"
     inkscape:window-height="538"
     inkscape:window-x="-8"
     inkscape:window-y="-8"
     inkscape:window-maximized="1" />
  <metadata
     id="metadata7">
    <rdf:RDF>
      <cc:Work
         rdf:about="">
        <dc:format>image/svg+xml</dc:format>
        <dc:type
           rdf:resource="http://purl.org/dc/dcmitype/StillImage" />
      </cc:Work>
    </rdf:RDF>
  </metadata>
  <g
     inkscape:label="fundo"
     inkscape:groupmode="layer"
     id="layer1"
     transform="translate(0,-952.36218)">
    <rect
       style="fill:#55ff99;fill-opacity:1;fill-rule:evenodd;stroke:url(#radialGradient3937);stroke-width:0.54358453px;stroke-linecap:butt;stroke-linejoin:miter;stroke-opacity:1"
       id="rect2985"
       width="88.910461"
       height="78.170769"
       x="10.832975"
       y="960.21362"
       transform="matrix(0.99999611,-0.00278846,-0.00369604,0.99999317,0,0)" />
  </g>
  <g
     inkscape:groupmode="layer"
     id="layer4"
     inkscape:label="fundo2"
     transform="translate(0,-100)">
    <text
       xml:space="preserve"
       style="font-size:13.86495781px;font-style:normal;font-variant:normal;font-weight:normal;font-stretch:normal;line-height:125%;letter-spacing:0px;word-spacing:0px;fill:#ff0000;fill-opacity:1;stroke:none;font-family:Serif;-inkscape-font-specification:Serif"
       x="21.700645"
       y="184.94431"
       id="text3013"
       sodipodi:linespacing="125%"
       transform="matrix(1.0182462,6.6690914e-4,-0.03850709,0.98205554,0,0)"><tspan
         sodipodi:role="line"
         x="21.700645"
         y="184.94431"
         id="tspan3017">distribuidora</tspan></text>
    <path
       style="fill:#ff0000"
       id="path3023"
       d="m 14.830236,122.1557 c 0.490945,1.52117 1.024562,3.02998 1.504352,4.55437 0.926681,2.7042 2.018115,5.36339 3.222324,7.98403 0.295465,0.64245 0.502186,1.33074 0.930142,1.92333 0.09032,0.12507 0.17745,0.26001 0.312214,0.35058 0.324914,0.21833 0.89086,0.27383 1.25574,0.34118 2.20564,0.22056 4.433355,0.14476 6.648563,0.11059 0.306312,-0.004 0.612627,-0.0203 0.918942,-0.0152 0.816808,0.0136 1.631978,0.0692 2.448251,0.0979 1.283546,0.0454 2.566943,0.0892 3.850946,0.12396 2.54481,0.0958 5.08687,0.22466 7.63334,0.2868 2.21802,0.0552 4.43303,0.18194 6.65034,0.25813 1.37622,0.0416 2.75322,0.0692 4.13033,0.0682 0.51121,-0.0299 1.00658,-8.2e-4 1.50916,0.0697 0.69855,0.0347 0.87427,0.25847 1.36181,0.70281 0.29756,0.2712 0.59309,0.54404 0.88963,0.81606 1.62488,1.39643 3.30695,2.74965 5.09915,3.98637 1.24532,0.82032 0.64254,0.4107 1.81006,1.22698 1.00195,0.68144 1.91493,1.44862 2.84022,2.2036 0.29932,0.25846 0.58447,0.5287 0.8885,0.78284 0.31865,0.28639 0.64252,0.56722 0.9506,0.86245 0.3741,0.33304 0.75514,0.65999 1.1255,0.9967 0.31881,0.27536 0.61235,0.57045 0.93122,0.84543 0.28441,0.2429 0.5585,0.49272 0.847,0.73223 0.29362,0.26365 0.62358,0.49223 0.92488,0.74851 0.28016,0.24841 0.54315,0.50843 0.82736,0.75368 0.29023,0.25076 0.60247,0.478 0.89001,0.73148 0.27334,0.25123 0.52772,0.50623 0.84445,0.71711 0.34532,0.23607 0.60875,0.54093 0.90817,0.81755 0.36228,0.26387 0.67673,0.56764 1.01409,0.85245 0.44149,0.38825 0.91217,0.74809 1.34665,1.14298 0.38411,0.30342 0.72663,0.64566 1.06105,0.98949 0.29407,0.33933 0.6443,0.62841 1.01084,0.90747 0.42442,0.3668 0.84942,0.73849 1.24486,1.12879 0.36732,0.2876 0.68066,0.6229 1.05414,0.90423 0.36828,0.25409 0.65876,0.57765 0.97617,0.8753 0,0 -2.19073,1.14289 -2.19073,1.14289 l 0,0 c -0.30081,-0.30132 -0.59915,-0.60606 -0.96085,-0.85609 -0.36593,-0.29849 -0.69394,-0.62899 -1.05058,-0.93562 -0.38919,-0.38473 -0.80605,-0.75384 -1.24494,-1.09619 -0.37246,-0.28747 -0.71602,-0.59635 -1.02285,-0.93762 -0.33623,-0.33893 -0.67478,-0.67538 -1.05229,-0.98121 -0.42521,-0.39655 -0.87426,-0.76992 -1.33735,-1.1336 -0.34856,-0.28062 -0.67685,-0.57903 -1.02443,-0.86081 -0.29436,-0.26797 -0.56918,-0.55061 -0.90698,-0.77992 -0.3179,-0.22129 -0.56536,-0.49653 -0.85658,-0.74237 -0.29009,-0.24965 -0.59742,-0.48236 -0.88986,-0.72982 -0.28479,-0.24391 -0.53839,-0.51089 -0.82597,-0.75229 -0.30219,-0.25396 -0.62256,-0.49092 -0.92366,-0.74605 -0.2917,-0.23952 -0.55899,-0.49808 -0.84976,-0.73831 -0.31489,-0.27954 -0.60285,-0.58054 -0.92566,-0.8539 -0.36777,-0.33753 -0.73583,-0.67449 -1.1126,-1.00449 -0.32009,-0.28313 -0.6511,-0.55646 -0.97041,-0.83997 -0.30232,-0.25438 -0.57791,-0.53267 -0.85608,-0.80636 -0.8382,-0.7983 -1.69443,-1.58316 -2.65158,-2.27854 -0.53679,-0.39168 -1.20681,-0.8755 -1.72778,-1.27718 -1.71475,-1.32205 -3.35376,-2.71825 -5.13777,-3.973 -0.34679,-0.24408 -0.69143,-0.49045 -1.04039,-0.73221 -0.53816,-0.37286 -0.73576,-0.49521 -1.39018,-0.53783 -0.47511,-0.0656 -0.95132,-0.0739 -1.4324,-0.0781 -1.32842,-0.0389 -2.65562,-0.0961 -3.98221,-0.16839 -2.22525,-0.10604 -4.45145,-0.18078 -6.67881,-0.23912 -2.51664,-0.1224 -5.03283,-0.26093 -7.552174,-0.33409 -2.43185,-0.0561 -4.862058,-0.18274 -7.295435,-0.14819 -2.240067,0.0137 -4.48496,0.0318 -6.719577,-0.12448 -0.513579,-0.0992 -0.997096,-0.12512 -1.413494,-0.43803 -0.138611,-0.10422 -0.21743,-0.25703 -0.303965,-0.39695 -0.385717,-0.62368 -0.55246,-1.32936 -0.859373,-1.97999 -1.047452,-2.6842 -1.869275,-5.43266 -3.019847,-8.0881 -0.646588,-1.44514 -1.239192,-2.90835 -1.914484,-4.34338 0,0 2.260045,-1.08866 2.260045,-1.08866 z"
       inkscape:connector-curvature="0" />
    <path
       style="fill:#ff2a2a;fill-opacity:1"
       id="path4036"
       d="m 30.566069,131.25964 c -1.168119,-2.30021 -2.872367,-4.29409 -4.518084,-6.2642 -0.478174,-0.57684 -0.992451,-1.12272 -1.47504,-1.69575 -0.161394,-0.19164 -0.437038,-0.33737 -0.471252,-0.58557 -0.131479,-0.9538 1.011806,-1.71184 1.550668,-2.13469 0.573763,-0.45025 1.204144,-0.82325 1.806216,-1.23487 2.711314,-1.71809 5.580733,-3.22364 8.098953,-5.23121 0.292857,-0.23348 0.569764,-0.48628 0.854647,-0.72942 0.695116,-0.62191 1.320284,-1.29739 1.61973,-2.19017 0,0 2.428013,-1.14937 2.428013,-1.14937 l 0,0 c -0.03416,0.12733 -0.05551,0.25882 -0.10248,0.382 -0.317086,0.83171 -1.031633,1.43379 -1.653184,2.03047 -0.911593,0.76415 -1.07857,0.93467 -2.112027,1.65706 -2.281443,1.59474 -4.711162,2.95701 -7.074528,4.42228 -0.56551,0.38596 -1.151513,0.74348 -1.69653,1.15788 -0.165845,0.12609 -1.522215,1.08611 -1.493895,1.70203 0.01123,0.24416 0.265527,0.41065 0.407882,0.60932 0.292768,0.4086 1.085755,1.42375 1.353729,1.76986 1.025441,1.33241 2.045798,2.66565 3.118183,3.96106 0.506581,0.61194 1.051763,1.21986 1.536401,1.85451 0.07566,0.0991 0.140106,0.20623 0.210158,0.30934 0,0 -2.38756,1.35944 -2.38756,1.35944 z"
       inkscape:connector-curvature="0" />
    <path
       style="fill:#ff2a2a;fill-opacity:1"
       id="path4038"
       d="m 39.914383,129.82913 c 0.566944,-0.27128 1.165351,-0.48233 1.745298,-0.73059 0.833275,-0.37485 1.730738,-0.52423 2.626957,-0.6587 0.599565,0.0114 1.295262,-0.31896 1.887722,-0.29131 0.145216,0.007 0.287115,0.0458 0.430672,0.0687 1.348665,0.41194 2.628121,1.02316 3.929197,1.56349 0.507249,0.22392 0.992927,0.49177 1.483745,0.74862 0,0 -2.22614,1.45326 -2.22614,1.45326 l 0,0 c -0.470593,-0.268 -0.938615,-0.54344 -1.441244,-0.74912 -1.264698,-0.58337 -2.540252,-1.21827 -3.921152,-1.46496 -0.139967,-0.002 -0.280091,-0.0142 -0.4199,-0.007 -0.614953,0.031 -1.217704,0.2435 -1.834957,0.26348 -0.908152,0.14755 -1.800128,0.35829 -2.637934,0.75009 -0.596763,0.25024 -1.214668,0.45639 -1.778306,0.77876 0,0 2.156042,-1.72463 2.156042,-1.72463 z"
       inkscape:connector-curvature="0" />
    <path
       style="fill:#ff2a2a;fill-opacity:1"
       id="path4040"
       d="m 41.958886,124.84613 c -0.0123,-0.0743 -0.02302,-0.14878 -0.0369,-0.22276 -0.04437,-0.23645 -0.05787,-0.30413 -0.133218,-0.52952 -0.02997,-0.0896 -0.06416,-0.17782 -0.09739,-0.2663 -0.03345,-0.0891 -0.100914,-0.1712 -0.102657,-0.26632 -0.0031,-0.16727 0.05915,-0.32933 0.08872,-0.49399 0.151087,-0.23747 0.28413,-0.48744 0.45326,-0.71242 0.551592,-0.73374 1.288249,-1.48151 1.919379,-2.12784 1.201757,-1.23072 2.448013,-2.41705 3.676882,-3.6204 0.813756,-0.79288 1.604632,-1.61849 2.497945,-2.32493 0.741862,-0.58667 1.555216,-1.08585 2.343527,-1.60615 0.837735,-0.5707 1.786331,-1.05574 2.404818,-1.88334 0.20316,-0.3061 0.224588,-0.65906 0.23459,-1.01434 0,0 2.434755,-1.23525 2.434755,-1.23525 l 0,0 c -0.0028,0.39582 -0.0031,0.80272 -0.183663,1.16536 -0.59058,0.9379 -1.630059,1.44531 -2.525758,2.04414 -0.794365,0.51964 -1.619612,1.01471 -2.377075,1.58798 -0.946557,0.71639 -1.791853,1.55835 -2.654252,2.36984 -1.240081,1.18619 -2.488336,2.36358 -3.672596,3.60636 -0.70732,0.74227 -1.146511,1.20972 -1.739885,2.0035 -0.143422,0.19186 -0.266285,0.39826 -0.399428,0.5974 -0.04429,0.10874 -0.126707,0.20897 -0.132868,0.32622 -5.36e-4,0.0102 0.210965,0.54642 0.211157,0.54696 0.111049,0.31355 0.06468,0.22428 0.153188,0.53829 0.02064,0.0732 0.04596,0.14502 0.06894,0.21753 0,0 -2.431471,1.29998 -2.431471,1.29998 z"
       inkscape:connector-curvature="0" />
    <path
       style="fill:#ff2a2a;fill-opacity:1"
       id="path4042"
       d="m 55.977146,127.4147 c -0.235165,-0.55188 -0.500617,-1.09093 -0.7573,-1.63319 -0.447766,-0.91084 -0.398286,-1.30403 0.05299,-2.20944 0.105265,-0.16168 0.206833,-0.32583 0.315794,-0.48504 0.484795,-0.70837 0.366732,-0.48059 0.833161,-1.19586 0.341693,-0.52398 0.64931,-1.0708 0.976354,-1.60395 0.4403,-0.7413 0.924321,-1.45884 1.316267,-2.22779 0.110148,-0.21109 0.165725,-0.43833 0.215184,-0.6689 0,0 2.449194,-1.19129 2.449194,-1.19129 l 0,0 c -0.0415,0.25478 -0.07971,0.51022 -0.196828,0.74433 -0.395784,0.79889 -0.933965,1.51613 -1.384758,2.28368 -0.679422,1.09877 -1.348915,2.20297 -2.101937,3.25408 -0.456038,0.82947 -0.54022,1.10152 -0.135283,1.97464 0.257773,0.54669 0.530008,1.08648 0.822918,1.61529 0,0 -2.405753,1.34344 -2.405753,1.34344 z"
       inkscape:connector-curvature="0" />
    <path
       style="fill:#ff2a2a;fill-opacity:1"
       id="path4044"
       d="m 61.885429,132.59906 c 0.0855,-0.0411 0.167999,-0.0892 0.256512,-0.12329 0.365737,-0.14106 0.74904,-0.23315 1.115439,-0.37248 1.13446,-0.43139 2.240534,-0.94209 3.345447,-1.44249 1.970834,-0.86041 3.872786,-1.86448 5.809976,-2.79514 0.796126,-0.38624 0.698655,-0.32859 1.436385,-0.72365 0.190334,-0.10192 0.755221,-0.41883 0.568319,-0.31074 -3.308406,1.91333 -1.872844,1.1837 -1.228222,0.55505 0.01586,-0.13686 0.07108,-0.27481 0.04758,-0.41056 -0.07951,-0.45941 -0.394152,-0.90613 -0.65321,-1.2683 -0.475373,-0.66457 -1.041688,-1.2615 -1.573208,-1.88026 -0.556288,-0.62399 -1.006617,-1.33156 -1.44336,-2.04141 0,0 2.292449,-1.32537 2.292449,-1.32537 l 0,0 c 0.397303,0.71523 0.829819,1.41263 1.361179,2.03804 0.339229,0.41016 0.686919,0.81329 1.025527,1.22396 0.500713,0.60728 1.112623,1.2724 1.352298,2.04328 0.05768,0.18553 0.04662,0.38577 0.06993,0.57865 -0.07988,0.0996 -0.147172,0.21081 -0.23963,0.29889 -0.104943,0.1 -0.223594,0.18631 -0.347909,0.26084 -0.892738,0.53518 -1.797203,1.05062 -2.700987,1.56693 -0.626201,0.35774 -1.287984,0.65235 -1.93689,0.96478 -1.91895,0.91628 -3.797482,1.91836 -5.758108,2.74623 -1.151794,0.51396 -2.301841,1.03938 -3.470322,1.51475 -0.744411,0.30285 -0.561539,0.18129 -1.185086,0.46871 -0.0987,0.0455 -0.19308,0.0999 -0.289619,0.14978 0,0 2.145502,-1.7162 2.145502,-1.7162 z"
       inkscape:connector-curvature="0" />
  </g>
  <g
     inkscape:groupmode="layer"
     id="layer5"
     inkscape:label="fundo3">
    <text
       xml:space="preserve"
       style="font-size:36.92795944px;font-style:normal;font-variant:normal;font-weight:normal;font-stretch:normal;line-height:125%;letter-spacing:0px;word-spacing:0px;fill:#ff5555;fill-opacity:1;stroke:none;font-family:Serif;-inkscape-font-specification:Serif"
       x="26.075256"
       y="88.520531"
       id="text3141"
       sodipodi:linespacing="125%"
       transform="matrix(1.2863604,-0.02970183,-0.37091873,0.78595158,0,0)"><tspan
         sodipodi:role="line"
         id="tspan3143"
         x="26.075256"
         y="88.520531">VA</tspan></text>
  </g>
</svg>
